<svg width="403" height="102" viewBox="0 0 403 102" fill="none" xmlns="http://www.w3.org/2000/svg">
<path d="M31.488 10.7019C77.9736 10.7618 131.106 10.4251 190.886 9.69058C280.556 8.58883 394.609 5.78417 394.609 11.7291C394.609 17.6752 394.609 24.0687 394.609 29.4441C394.609 34.8184 394.609 66.1036 394.609 71.1276C394.609 76.1515 394.609 85.0526 394.609 89.0234C394.609 92.9931 384.778 92.9931 359.8 92.9931C334.822 92.9931 32.6777 94.6078 19.2153 92.9931C5.75282 91.3783 9.15299 41.7589 9.15299 37.2841C9.15299 32.8093 9.15299 26.7818 9.15299 23.4077" stroke="black" stroke-width="16" stroke-linecap="round" stroke-linejoin="round"/>
<path d="M331.374 37.5982C332.512 37.5858 333.65 37.6332 334.789 37.6468C335.566 37.6558 336.345 37.6423 337.122 37.6513C338.22 37.6637 351.054 37.7609 352.505 37.7168C354.435 37.6581 355.066 37.588 356.997 37.518C358.158 37.4762 358.346 37.4174 359.507 37.3846C360.347 37.3609 361.188 37.3383 362.026 37.3665C363.405 37.414 366.243 37.1598 367.308 37.3665C367.623 37.4287 364.748 43.2403 361.031 49.7276C359.195 52.9289 356.802 57.5868 354.929 60.6931C352.493 64.7295 350.133 67.9669 347.848 70.4044C347.025 70.4044 339.885 58.5507 339.35 57.6659C337.835 55.1584 331.527 43.4233 330.692 41.969C329.949 40.6763 329.23 39.3712 328.501 38.0705C328.453 37.9824 328.419 37.8863 328.366 37.7677" stroke="black" stroke-width="16" stroke-linecap="round" stroke-linejoin="round"/>
<path d="M34.0341 71V36.0909H57.5568V42.1761H41.4148V50.4943H56.3466V56.5795H41.4148V64.9148H57.625V71H34.0341ZM69.7315 36.0909L78.169 62.6136H78.4929L86.9474 36.0909H95.1293L83.0952 71H73.5838L61.5327 36.0909H69.7315ZM99.331 71V36.0909H122.854V42.1761H106.712V50.4943H121.643V56.5795H106.712V64.9148H122.922V71H99.331ZM157.92 36.0909V71H151.545L136.358 49.0284H136.102V71H128.722V36.0909H135.199L150.267 58.0455H150.574V36.0909H157.92ZM162.689 42.1761V36.0909H191.359V42.1761H180.672V71H173.376V42.1761H162.689ZM226.567 53.5455C226.567 57.3523 225.845 60.5909 224.402 63.2614C222.97 65.9318 221.016 67.9716 218.538 69.3807C216.072 70.7784 213.3 71.4773 210.22 71.4773C207.118 71.4773 204.334 70.7727 201.868 69.3636C199.402 67.9545 197.453 65.9148 196.021 63.2443C194.589 60.5739 193.874 57.3409 193.874 53.5455C193.874 49.7386 194.589 46.5 196.021 43.8295C197.453 41.1591 199.402 39.125 201.868 37.7273C204.334 36.3182 207.118 35.6136 210.22 35.6136C213.3 35.6136 216.072 36.3182 218.538 37.7273C221.016 39.125 222.97 41.1591 224.402 43.8295C225.845 46.5 226.567 49.7386 226.567 53.5455ZM219.084 53.5455C219.084 51.0795 218.714 49 217.976 47.3068C217.249 45.6136 216.22 44.3295 214.891 43.4545C213.561 42.5795 212.004 42.142 210.22 42.142C208.436 42.142 206.879 42.5795 205.55 43.4545C204.22 44.3295 203.186 45.6136 202.447 47.3068C201.72 49 201.357 51.0795 201.357 53.5455C201.357 56.0114 201.72 58.0909 202.447 59.7841C203.186 61.4773 204.22 62.7614 205.55 63.6364C206.879 64.5114 208.436 64.9489 210.22 64.9489C212.004 64.9489 213.561 64.5114 214.891 63.6364C216.22 62.7614 217.249 61.4773 217.976 59.7841C218.714 58.0909 219.084 56.0114 219.084 53.5455Z" fill="black"/>
</svg>
