<svg width="84" height="93" viewBox="0 0 84 93" fill="none" xmlns="http://www.w3.org/2000/svg">
<path d="M71.5001 17.25L67.5623 75.8129C67.2177 80.9419 67.0451 83.5066 65.928 85.4512C64.9442 87.1633 63.4603 88.5396 61.6722 89.399C59.6411 90.375 57.0485 90.375 51.8639 90.375H32.1361C26.9515 90.375 24.3592 90.375 22.328 89.399C20.5397 88.5396 19.0559 87.1633 18.0722 85.4512C16.9549 83.5066 16.7825 80.9419 16.4376 75.8129L12.5001 17.25M2.66675 17.25H81.3334M61.6667 17.25L60.3363 13.2918C59.0467 9.45609 58.4016 7.53822 57.2059 6.12028C56.1498 4.86813 54.7937 3.89894 53.2617 3.30155C51.5266 2.625 49.4882 2.625 45.4103 2.625H38.5899C34.512 2.625 32.4735 2.625 30.7385 3.30155C29.2065 3.89894 27.8503 4.86813 26.7943 6.12028C25.5983 7.53822 24.9536 9.45609 23.6641 13.2918L22.3334 17.25M51.8334 36.75V70.875M32.1667 36.75V70.875" stroke="black" stroke-width="5" stroke-linecap="round" stroke-linejoin="round"/>
</svg>
