<svg width="119" height="119" viewBox="0 0 119 119" fill="none" xmlns="http://www.w3.org/2000/svg">
<path d="M59.2645 118.535C66.5667 118.535 72.6355 113.272 73.8952 106.333H44.6338C45.8935 113.272 51.9623 118.535 59.2645 118.535Z" fill="black"/>
<path d="M108.046 81.8262C102.875 76.6548 96.452 74.17 96.452 49.041C96.452 30.5881 83.0108 15.2773 65.3858 12.3578H64.4233C65.5466 11.1209 66.2313 9.47837 66.2313 7.67571C66.2313 3.82796 63.1122 0.708862 59.2645 0.708862C55.4168 0.708862 52.2977 3.82796 52.2977 7.67571C52.2977 9.47814 52.9824 11.1209 54.1057 12.3578H53.1432C35.5182 15.2773 22.077 30.5881 22.077 49.041C22.077 74.17 15.6522 76.6548 10.4808 81.8262C3.47349 88.8335 8.43965 100.871 18.3694 100.871H100.158C110.068 100.871 115.068 88.8477 108.046 81.8262Z" fill="black"/>
</svg>
