<svg width="710" height="480" viewBox="0 0 710 480" fill="none" xmlns="http://www.w3.org/2000/svg">
<path d="M88.75 272.986C88.75 332.088 160.272 380 248.5 380H488.125C561.648 380 621.25 339.678 621.25 289.938C621.25 253.006 588.392 218.898 541.375 205C536.396 146.45 463.985 100 375.392 100C306.229 100 246.93 129.727 221.875 170C142 178.75 88.75 224.002 88.75 272.986Z" stroke="black" stroke-width="24" stroke-linecap="round" stroke-linejoin="round"/>
<g clip-path="url(#clip0_16_39)">
<path d="M465 337.668H245L292.741 284.202H331.064V297.881H298.856L275.553 323.988H434.454L411.144 297.881H378.942V284.202H417.266L465 337.668Z" fill="black"/>
<path d="M353.738 288.08C337.528 266.897 306.9 221.098 306.9 199.177C306.9 168.33 325.333 149.172 355.003 149.172C384.674 149.172 403.107 168.33 403.107 199.177C403.107 218.917 377.889 259.415 356.296 288.094L355.01 289.769L353.738 288.08Z" fill="white"/>
<path d="M355.003 156.012C380.844 156.012 396.267 172.146 396.267 199.177C396.267 214.943 375.577 250.133 355.003 278.354C337.535 254.524 313.739 216.235 313.739 199.177C313.739 172.146 329.163 156.012 355.003 156.012ZM355.003 142.332C321.612 142.332 300.06 164.65 300.06 199.177C300.06 227.959 343.342 285.734 348.287 292.204L355.003 301.082L361.768 292.204C366.672 285.693 409.947 227.918 409.947 199.177C409.947 164.65 388.395 142.332 355.003 142.332Z" fill="black"/>
<path d="M355.003 216.96C364.832 216.96 372.8 208.992 372.8 199.163C372.8 189.334 364.832 181.366 355.003 181.366C345.174 181.366 337.206 189.334 337.206 199.163C337.206 208.992 345.174 216.96 355.003 216.96Z" fill="black"/>
</g>
<defs>
<clipPath id="clip0_16_39">
<rect width="220" height="220" fill="white" transform="translate(245 130)"/>
</clipPath>
</defs>
</svg>
