<svg width="80" height="80" viewBox="0 0 80 80" fill="none" xmlns="http://www.w3.org/2000/svg">
<g clip-path="url(#clip0_31_83)">
<path d="M-9.67258e-05 54.96C0.0532366 53.6267 0.559903 52.48 1.5199 51.52L11.5199 41.52C12.2666 40.72 13.1466 40.24 14.1599 40.08C15.1732 39.92 16.1066 40.0267 16.9599 40.4C17.8132 40.7733 18.5332 41.3867 19.1199 42.24C19.7066 43.0933 19.9999 44.0267 19.9999 45.04V50H65.0399C66.3732 50 67.5466 49.52 68.5599 48.56C69.5732 47.6 70.0532 46.4267 69.9999 45.04V25.04C69.9999 23.6533 69.5199 22.48 68.5599 21.52C67.5999 20.56 66.4266 20.0533 65.0399 20H25.0399C23.8132 20 22.7732 19.6533 21.9199 18.96C21.0666 18.2667 20.5332 17.44 20.3199 16.48C20.1066 15.52 20.1066 14.56 20.3199 13.6C20.5332 12.64 21.0666 11.7867 21.9199 11.04C22.7732 10.2933 23.8132 9.94666 25.0399 9.99999H65.0399C69.1466 9.99999 72.6666 11.4667 75.5999 14.4C78.5332 17.3333 79.9999 20.88 79.9999 25.04V45.04C79.9999 49.2 78.5332 52.72 75.5999 55.6C72.6666 58.48 69.1466 59.9467 65.0399 60H19.9999V65.04C19.9999 66.1067 19.7066 67.0667 19.1199 67.92C18.5332 68.7733 17.7866 69.36 16.8799 69.68C15.9732 70 15.0399 70.08 14.0799 69.92C13.1199 69.76 12.2666 69.3067 11.5199 68.56L1.5199 58.56C0.453236 57.5467 -0.0534301 56.3467 -9.67258e-05 54.96Z" fill="black"/>
</g>
<defs>
<clipPath id="clip0_31_83">
<rect width="80" height="80" fill="white"/>
</clipPath>
</defs>
</svg>
