<svg width="109" height="109" viewBox="0 0 109 109" fill="none" xmlns="http://www.w3.org/2000/svg">
<g clip-path="url(#clip0_8_33)">
<path fill-rule="evenodd" clip-rule="evenodd" d="M54.5 77.8571C67.3997 77.8571 77.8571 67.3997 77.8571 54.5C77.8571 41.6002 67.3997 31.1428 54.5 31.1428C41.6002 31.1428 31.1428 41.6002 31.1428 54.5C31.1428 67.3997 41.6002 77.8571 54.5 77.8571ZM70.0714 54.5C70.0714 63.0997 63.0997 70.0714 54.5 70.0714C45.9003 70.0714 38.9285 63.0997 38.9285 54.5C38.9285 45.9003 45.9003 38.9285 54.5 38.9285C63.0997 38.9285 70.0714 45.9003 70.0714 54.5Z" fill="black"/>
<path fill-rule="evenodd" clip-rule="evenodd" d="M0 50.6056V58.3913C0 64.4182 4.5648 69.3785 10.4254 70.0037C10.9229 71.418 11.4863 72.8007 12.112 74.1484C8.2717 78.7369 8.50729 85.5806 12.8188 89.8923L18.3241 95.3976C22.5375 99.6108 29.1694 99.932 33.7512 96.3603C35.4421 97.2 37.1917 97.9404 38.992 98.5742C39.6172 104.435 44.5775 109 50.6044 109H58.3901C64.4155 109 69.375 104.437 70.0017 98.578C71.6379 98.0027 73.232 97.3393 74.7783 96.5931C79.3454 99.9156 85.7768 99.517 89.8962 95.3976L95.4015 89.8923C99.5209 85.7729 99.9195 79.3415 96.5974 74.7744C97.3424 73.2297 98.0054 71.6375 98.5804 70.0029C104.438 69.375 109 64.4159 109 58.3913V50.6056C109 44.581 104.438 39.6223 98.5804 38.9944C97.9462 37.1914 97.205 35.4396 96.3642 33.7465C99.9328 29.1649 99.6112 22.5353 95.3987 18.3229L89.8935 12.8176C85.5829 8.5071 78.7412 8.27057 74.1531 12.108C72.803 11.4814 71.418 10.9172 70.0014 10.4191C69.3734 4.56153 64.4143 0 58.3901 0H50.6044C44.5787 0 39.6188 4.56364 38.9924 10.4231C37.4018 10.9829 35.8507 11.6261 34.3448 12.3474C29.7587 8.26263 22.7251 8.41932 18.3269 12.8176L12.8215 18.3229C8.42325 22.7212 8.26656 29.7549 12.3515 34.3409C11.6294 35.8484 10.9856 37.4011 10.4254 38.9936C4.5648 39.6188 0 44.5791 0 50.6056ZM62.283 11.6786C62.283 9.52862 60.5402 7.78571 58.3901 7.78571H50.6044C48.4544 7.78571 46.7116 9.52862 46.7116 11.6786V13.1683C46.7116 15.0195 45.4008 16.5943 43.623 17.1107C40.8618 17.9129 38.2268 19.0128 35.7557 20.3732C34.134 21.266 32.0937 21.0791 30.7847 19.7701L29.3375 18.3229C27.8173 16.8027 25.3525 16.8027 23.8322 18.3229L18.3269 23.8283C16.8066 25.3485 16.8066 27.8133 18.3269 29.3336L19.7741 30.7808C21.0831 32.0898 21.27 34.1301 20.3772 35.7518C19.016 38.2244 17.9157 40.8606 17.1134 43.6237C16.5972 45.402 15.0223 46.7127 13.1709 46.7127H11.6786C9.52862 46.7127 7.78571 48.456 7.78571 50.6056V58.3913C7.78571 60.5413 9.52862 62.2842 11.6786 62.2842H13.1709C15.0223 62.2842 16.5972 63.5953 17.1134 65.3731C17.8664 67.9669 18.882 70.4486 20.1294 72.7883C20.9904 74.403 20.7916 76.4141 19.4976 77.708L18.3241 78.8817C16.8039 80.4019 16.8039 82.8665 18.3241 84.387L23.8295 89.8923C25.3497 91.4125 27.8146 91.4125 29.3348 89.8923L30.282 88.9452C31.6061 87.6208 33.6754 87.4464 35.3035 88.371C37.9046 89.8487 40.6924 91.0352 43.623 91.8866C45.4008 92.4028 46.7116 93.9779 46.7116 95.8289V97.3214C46.7116 99.4715 48.4544 101.214 50.6044 101.214H58.3901C60.5402 101.214 62.283 99.4715 62.283 97.3214V95.832C62.283 93.9806 63.5941 92.4055 65.3724 91.8893C68.1375 91.087 70.7757 89.9861 73.2496 88.624C74.8713 87.7314 76.9116 87.9182 78.2207 89.2274L78.8856 89.8923C80.4058 91.4125 82.8708 91.4125 84.3909 89.8923L89.8962 84.387C91.4164 82.8665 91.4164 80.4019 89.8962 78.8817L89.2313 78.2168C87.9221 76.9077 87.7353 74.8674 88.6283 73.2457C89.9896 70.7729 91.0897 68.1367 91.8921 65.3731C92.4083 63.5953 93.9833 62.2842 95.8347 62.2842H97.3214C99.4715 62.2842 101.214 60.5413 101.214 58.3913V50.6056C101.214 48.456 99.4715 46.7127 97.3214 46.7127H95.8347C93.9833 46.7127 92.4083 45.402 91.8921 43.6237C91.0407 40.6916 89.8538 37.9019 88.3753 35.2994C87.4503 33.6712 87.6251 31.6019 88.9491 30.2779L89.8935 29.3336C91.4136 27.8133 91.4136 25.3485 89.8935 23.8283L84.3882 18.3229C82.868 16.8027 80.4031 16.8027 78.8829 18.3229L77.7123 19.4934C76.4183 20.7874 74.4069 20.9862 72.7921 20.1253C70.4514 18.877 67.9677 17.861 65.3724 17.1078C63.5941 16.5917 62.283 15.0168 62.283 13.1651V11.6786Z" fill="black"/>
</g>
<defs>
<clipPath id="clip0_8_33">
<rect width="109" height="109" fill="white"/>
</clipPath>
</defs>
</svg>
