<svg width="119" height="119" viewBox="0 0 119 119" fill="none" xmlns="http://www.w3.org/2000/svg">
<path d="M59.2646 118.535C66.5668 118.535 72.6356 113.272 73.8953 106.333H44.6339C45.8936 113.272 51.9623 118.535 59.2646 118.535Z" fill="black"/>
<path d="M108.046 81.8262C102.875 76.6548 96.4521 74.17 96.4521 49.041C96.4521 30.5881 83.0109 15.2773 65.3859 12.3579H64.4234C65.5467 11.1209 66.2314 9.4784 66.2314 7.67574C66.2314 3.82799 63.1123 0.708893 59.2646 0.708893C55.4168 0.708893 52.2977 3.82799 52.2977 7.67574C52.2977 9.47817 52.9824 11.1209 54.1057 12.3579H53.1433C35.5183 15.2773 22.0771 30.5881 22.0771 49.041C22.0771 74.17 15.6522 76.6548 10.4808 81.8262C3.47355 88.8335 8.43971 100.871 18.3695 100.871H100.158C110.068 100.871 115.068 88.8477 108.046 81.8262Z" fill="black"/>
</svg>
