<svg width="107" height="106" viewBox="0 0 107 106" fill="none" xmlns="http://www.w3.org/2000/svg">
<g clip-path="url(#clip0_8_6)">
<path fill-rule="evenodd" clip-rule="evenodd" d="M88.6096 95.3999H18.3942C14.615 95.3999 11.8243 91.7058 13.2497 88.3085C19.8633 72.5993 35.4006 63.5999 53.4992 63.5999C71.6033 63.5999 87.1406 72.5993 93.7542 88.3085C95.1795 91.7058 92.3888 95.3999 88.6096 95.3999ZM31.6542 31.7999C31.6542 20.1081 41.4571 10.5999 53.4992 10.5999C65.5467 10.5999 75.3442 20.1081 75.3442 31.7999C75.3442 43.4917 65.5467 52.9999 53.4992 52.9999C41.4571 52.9999 31.6542 43.4917 31.6542 31.7999ZM106.763 93.4706C102.793 75.6679 90.3736 62.5292 74.0281 56.5667C82.6896 49.7986 87.7413 38.8539 85.8845 26.8706C83.7327 12.9687 71.8163 1.84428 57.4313 0.222477C37.5742 -2.01942 20.7316 12.9796 20.7316 31.7999C20.7316 41.8169 25.5157 50.742 32.9758 56.5667C16.6248 62.5292 4.21133 75.6679 0.235528 93.4706C-1.20624 99.9419 4.16764 106 10.9888 106H96.0096C102.836 106 108.21 99.9419 106.763 93.4706Z" fill="black"/>
</g>
<defs>
<clipPath id="clip0_8_6">
<rect width="107" height="106" fill="white"/>
</clipPath>
</defs>
</svg>
